<?xml version="1.0" encoding="UTF-8"?>
<svg id="Camada_1" data-name="Camada 1" xmlns="http://www.w3.org/2000/svg" viewBox="0 0 143.91 86.77">
  <defs>
    <style>
      .cls-1 {
        fill: #9053cd;
      }

      .cls-2 {
        fill: #9164cc;
      }
    </style>
  </defs>
  <g>
    <path class="cls-1" d="M1.12,73.81c.75-1.29,1.8-2.3,3.15-3.03,1.36-.72,2.93-1.09,4.71-1.09,1.02,0,1.96.11,2.81.34.85.23,1.54.54,2.06.92.52.39.78.82.78,1.29,0,.3-.11.62-.34.96-.23.34-.5.59-.83.77-.45-.5-1.11-.92-1.97-1.25-.86-.33-1.73-.5-2.61-.5-1.15,0-2.17.26-3.06.77-.89.51-1.57,1.22-2.06,2.13-.49.91-.73,1.97-.73,3.18s.26,2.21.77,3.1c.51.88,1.23,1.57,2.14,2.06.92.49,1.99.73,3.23.73.78,0,1.56-.1,2.34-.3.78-.2,1.42-.46,1.92-.79l1.32,2.15c-.65.46-1.5.82-2.56,1.1-1.06.28-2.15.41-3.29.41-1.75,0-3.3-.36-4.64-1.08-1.34-.72-2.39-1.71-3.14-2.98-.76-1.27-1.13-2.74-1.13-4.41s.37-3.2,1.12-4.49Z"/>
    <path class="cls-1" d="M16.94,83.6c-.59-.95-.89-2.01-.89-3.19s.3-2.25.89-3.19c.59-.95,1.39-1.69,2.4-2.25,1.01-.55,2.14-.83,3.41-.83s2.41.28,3.42.83c1.01.55,1.81,1.3,2.4,2.25s.88,2.01.88,3.19-.29,2.25-.88,3.19-1.38,1.69-2.4,2.25c-1.01.55-2.16.83-3.42.83s-2.4-.28-3.41-.83c-1.01-.55-1.81-1.3-2.4-2.25ZM26.06,82.43c.32-.59.49-1.26.49-2.02s-.16-1.43-.49-2.02c-.32-.59-.78-1.05-1.35-1.38-.58-.33-1.23-.5-1.96-.5s-1.38.17-1.96.5c-.58.33-1.03.79-1.35,1.38-.32.59-.49,1.26-.49,2.02s.16,1.43.49,2.02c.32.59.78,1.05,1.35,1.38.58.33,1.23.5,1.96.5s1.38-.17,1.96-.5c.58-.33,1.03-.79,1.35-1.38Z"/>
    <path class="cls-1" d="M31.78,79.18c0-1.01.25-1.89.74-2.65.5-.76,1.19-1.34,2.08-1.76.89-.42,1.93-.63,3.12-.63s2.24.21,3.13.63c.88.42,1.57,1,2.07,1.76.5.76.74,1.64.74,2.65v7.16h-2.78v-6.48c0-1.07-.27-1.89-.8-2.45-.54-.56-1.32-.84-2.36-.84-2.11,0-3.17,1.1-3.17,3.29v6.48h-2.78v-7.16Z"/>
    <path class="cls-1" d="M57.55,82.77c0,1.23-.52,2.19-1.55,2.87-1.03.69-2.39,1.03-4.08,1.03-.76,0-1.55-.07-2.37-.2-.82-.13-1.57-.32-2.24-.54-.67-.23-1.19-.47-1.55-.72l1.05-1.82c.52.32,1.23.59,2.14.83.91.24,1.85.35,2.82.35,1.92,0,2.87-.47,2.87-1.42,0-.8-.78-1.3-2.34-1.49l-2.48-.31c-1.23-.16-2.18-.52-2.85-1.09-.67-.57-1-1.35-1-2.36,0-1.23.5-2.16,1.49-2.8.99-.64,2.43-.96,4.31-.96.99,0,1.87.09,2.63.26.76.17,1.36.41,1.8.7.44.29.66.63.66,1,0,.24-.09.48-.26.73-.17.25-.37.43-.6.54-.21-.2-.56-.4-1.05-.58-.49-.18-1.04-.33-1.66-.45-.62-.12-1.23-.18-1.85-.18-.86,0-1.53.12-2.01.37-.48.24-.72.6-.72,1.08,0,.36.17.66.5.89.33.23.86.39,1.57.48l2.48.31c2.84.35,4.26,1.5,4.26,3.47Z"/>
    <path class="cls-1" d="M60.26,83.6c-.59-.95-.89-2.01-.89-3.19s.3-2.25.89-3.19c.59-.95,1.39-1.69,2.4-2.25,1.01-.55,2.14-.83,3.41-.83s2.41.28,3.42.83c1.01.55,1.81,1.3,2.4,2.25s.88,2.01.88,3.19-.29,2.25-.88,3.19-1.38,1.69-2.4,2.25c-1.01.55-2.16.83-3.42.83s-2.4-.28-3.41-.83c-1.01-.55-1.81-1.3-2.4-2.25ZM69.38,82.43c.32-.59.49-1.26.49-2.02s-.16-1.43-.49-2.02c-.32-.59-.78-1.05-1.35-1.38-.58-.33-1.23-.5-1.96-.5s-1.38.17-1.96.5c-.58.33-1.03.79-1.35,1.38-.32.59-.49,1.26-.49,2.02s.16,1.43.49,2.02c.32.59.78,1.05,1.35,1.38.58.33,1.23.5,1.96.5s1.38-.17,1.96-.5c.58-.33,1.03-.79,1.35-1.38ZM66.29,69.84c.52-.35.96-.52,1.32-.52.81,0,1.29.47,1.44,1.42l-4.51,2.2-.9-1.23,2.65-1.87Z"/>
    <path class="cls-1" d="M75.11,78.71c0-1.43.46-2.55,1.38-3.36.92-.8,2.19-1.21,3.81-1.21,1.1,0,1.96.16,2.56.47.6.32.9.72.9,1.21,0,.25-.07.5-.21.76-.14.25-.27.42-.4.5-.71-.35-1.52-.52-2.41-.52-1.9,0-2.85.98-2.85,2.93v6.85h-2.78v-7.63Z"/>
    <path class="cls-1" d="M85.25,77.17c.54-.95,1.33-1.69,2.35-2.22,1.02-.54,2.24-.8,3.65-.8.81,0,1.55.09,2.2.27.66.18,1.16.43,1.52.74.36.3.54.63.54.99,0,.25-.09.51-.26.77-.17.26-.4.5-.69.72-.41-.36-.9-.64-1.47-.84-.58-.2-1.19-.3-1.84-.3-1.19,0-2.14.34-2.85,1.03-.71.69-1.07,1.63-1.07,2.85s.36,2.15,1.08,2.85c.72.7,1.7,1.05,2.93,1.05,1.1,0,2.11-.27,3.02-.8l1.17,2.01c-1.35.79-2.85,1.18-4.51,1.18-1.32,0-2.47-.26-3.46-.77-.99-.51-1.76-1.23-2.31-2.16-.55-.93-.83-2.02-.83-3.29s.27-2.34.82-3.29Z"/>
    <path class="cls-1" d="M97.45,71.99c-.32-.32-.47-.71-.47-1.18s.16-.87.47-1.18c.32-.31.72-.47,1.21-.47s.89.16,1.21.47c.32.32.47.71.47,1.18s-.16.87-.47,1.18c-.32.32-.72.47-1.21.47s-.89-.16-1.21-.47ZM100.04,86.34h-2.78v-10.61c0-.41.14-.72.41-.93.28-.21.63-.32,1.07-.32.23,0,.46.02.71.07.24.05.44.11.58.19v11.61Z"/>
    <path class="cls-1" d="M103.42,83.6c-.59-.95-.89-2.01-.89-3.19s.3-2.25.89-3.19c.59-.95,1.39-1.69,2.4-2.25,1.01-.55,2.14-.83,3.41-.83s2.41.28,3.42.83c1.01.55,1.81,1.3,2.4,2.25s.88,2.01.88,3.19-.29,2.25-.88,3.19-1.38,1.69-2.4,2.25c-1.01.55-2.16.83-3.42.83s-2.4-.28-3.41-.83c-1.01-.55-1.81-1.3-2.4-2.25ZM112.54,82.43c.32-.59.49-1.26.49-2.02s-.16-1.43-.49-2.02c-.32-.59-.78-1.05-1.35-1.38-.58-.33-1.23-.5-1.96-.5s-1.38.17-1.96.5c-.58.33-1.03.79-1.35,1.38-.32.59-.49,1.26-.49,2.02s.16,1.43.49,2.02c.32.59.78,1.05,1.35,1.38.58.33,1.23.5,1.96.5s1.38-.17,1.96-.5c.58-.33,1.03-.79,1.35-1.38Z"/>
    <path class="cls-1" d="M129.32,82.77c0,1.23-.52,2.19-1.55,2.87-1.03.69-2.39,1.03-4.08,1.03-.76,0-1.55-.07-2.37-.2-.82-.13-1.57-.32-2.24-.54-.67-.23-1.19-.47-1.55-.72l1.05-1.82c.52.32,1.23.59,2.14.83.91.24,1.85.35,2.82.35,1.92,0,2.87-.47,2.87-1.42,0-.8-.78-1.3-2.34-1.49l-2.48-.31c-1.23-.16-2.18-.52-2.85-1.09-.67-.57-1-1.35-1-2.36,0-1.23.5-2.16,1.49-2.8.99-.64,2.43-.96,4.31-.96.99,0,1.87.09,2.63.26.76.17,1.36.41,1.8.7.44.29.66.63.66,1,0,.24-.09.48-.26.73-.17.25-.37.43-.6.54-.21-.2-.56-.4-1.05-.58-.49-.18-1.04-.33-1.66-.45-.62-.12-1.23-.18-1.85-.18-.86,0-1.53.12-2.01.37-.48.24-.72.6-.72,1.08,0,.36.17.66.5.89.33.23.86.39,1.57.48l2.48.31c2.84.35,4.26,1.5,4.26,3.47Z"/>
  </g>
  <g>
    <path class="cls-2" d="M16.89,47.04h-1.74c-.44,0-.8-.36-.8-.8V4.4c0-.46-.39-.83-.84-.8C5.6,4.04-.67,10.58-.67,18.6v27.73c0,8.22,6.6,14.89,14.78,15.02.08,0,.16,0,.24,0h12.9c.44,0,.8-.36.8-.8v-2.33c0-6.17-5-11.17-11.17-11.17Z"/>
    <path class="cls-2" d="M85.73,35.34h-6.46c-2.22,0-4.15,1.5-4.74,3.64-1.8,6.64-8.05,10.91-15.48,10.91-8.84,0-16-7.16-16-16s8.34-16.8,16-16c4.93.51,7.29,3.49,8.39,4.95-1.62,1.86-7.03,6.12-8.65,7.98-1.32,1.52-1.15,3.82.37,5.14l5.09,4.49c.46.4,1.16.37,1.57-.08,3.6-3.94,10.05-9.68,13.2-13.34,2.98-3.46,2.86-8.61-.27-11.94-5.28-5.61-12.36-8.97-19.76-9.02-14.18-.09-27.79,12-27.79,27.79s12.44,27.79,27.79,27.79,27.19-10.44,27.81-25.17c.03-.61-.46-1.12-1.07-1.12Z"/>
    <path class="cls-2" d="M143.64-.25c-7.65-1.75-15.41,6.09-17.47,13.73l-11.67,35.3c-.11.32-.56.31-.65-.02l-10.75-39.05c-.24-.89-1.16-1.41-2.05-1.18l-4.54,1.22c-4.36,1.17-7.71,3.52-5.78,10l9.49,30.88c1.73,6.46,7.62,10.7,14.02,10.6,6.4.1,12.29-4.14,14.02-10.6L143.89.19c.06-.19-.06-.39-.25-.43Z"/>
  </g>
</svg>